# xmcd
# 
# Track frame offsets:
#     150
#     34993
#     58599
#     84229
#     106507
#     131791
#     159244
#     182679
#     203504
#     224859
#     249145
#     276786
#     296910
# 
# Disc length: 4311
# 
# Revision: 1
# Processed by: cddbd v1.5.2PL0 Copyright (c) Steve Scherf et al.
# Submitted via: BonkEnc v1.0.0
# 
DISCID=b710d50d
DTITLE=Various Artist - ATB The DJ 4 - In The Mix
DYEAR=2008
DGENRE=Trance
TTITLE0=ATB - Justify (New World Mix)
TTITLE1=Jean Michel Jarre - Vintage (ATB Remix)
TTITLE2=Josh Gallahan - 1st Strike (Original Mix)
TTITLE3=Lange - Angel Falls (Langes Firewall Mix)
TTITLE4=Mark Norman - Ventura (ATB Remix)
TTITLE5=Breakfast - The Horizon (Original Mix)
TTITLE6=Oliver Smith - Nimbus (Original Mix)
TTITLE7=Ronski Speed - Love All The Pain Away (Kyau And Albert Remix)
TTITLE8=Mandala Bros - Sleep Walking (Duderstadt Uplifting Mix)
TTITLE9=Alexander Popov - Vapour Trails (Original Mix)
TTITLE10=Alex Bartlett feat Anthya - Touch The Sun (Duende Vocal Remix)
TTITLE11=Super8 And Tab - Suru (Original Mix)
TTITLE12=Taylor And Gallahan - Resistance (Original Mix)
EXTD=
EXTT0=
EXTT1=
EXTT2=
EXTT3=
EXTT4=
EXTT5=
EXTT6=
EXTT7=
EXTT8=
EXTT9=
EXTT10=
EXTT11=
EXTT12=
PLAYORDER=
